<?xml version="1.0" standalone="no"?>
<!DOCTYPE svg PUBLIC "-//W3C//DTD SVG 20010904//EN"
 "http://www.w3.org/TR/2001/REC-SVG-20010904/DTD/svg10.dtd">
<svg version="1.0" xmlns="http://www.w3.org/2000/svg"
 width="200.000000pt" height="200.000000pt" viewBox="0 0 200.000000 200.000000"
 preserveAspectRatio="xMidYMid meet">
<metadata>
Created by potrace 1.11, written by Peter Selinger 2001-2013
</metadata>
<g transform="translate(0.000000,200.000000) scale(0.100000,-0.100000)"
fill="#000000" stroke="none">
<path d="M889 1996 c-2 -2 -23 -6 -47 -10 -92 -12 -237 -61 -304 -103 -21 -13
-40 -23 -44 -23 -16 0 -135 -94 -191 -151 -75 -77 -124 -140 -167 -218 -37
-65 -90 -198 -100 -251 -3 -19 -9 -46 -12 -60 -11 -42 -14 -292 -4 -335 5 -22
12 -55 15 -74 30 -170 153 -378 312 -522 109 -100 306 -201 439 -225 15 -3 32
-8 37 -11 17 -10 259 -12 322 -2 93 14 222 57 310 102 84 44 214 143 268 204
18 20 37 41 43 47 6 6 29 38 51 71 159 234 206 491 148 799 -30 154 -146 356
-278 485 -181 175 -410 271 -668 277 -69 2 -128 2 -130 0z m-326 -501 c18 -7
40 -22 49 -32 31 -34 57 -108 63 -178 10 -131 17 -170 32 -203 28 -59 106
-102 184 -102 l39 0 -2 209 c-1 114 -5 218 -9 229 -11 29 -49 52 -95 56 -21 3
-42 5 -46 5 -4 1 -5 7 -2 14 4 11 53 13 229 14 124 0 225 -4 225 -8 0 -12 -18
-20 -58 -25 -44 -6 -80 -28 -90 -55 -4 -11 -9 -115 -10 -231 l-2 -210 54 5
c141 13 187 78 200 285 10 162 61 229 189 247 41 6 46 5 41 -9 -3 -9 -12 -16
-19 -16 -23 0 -46 -38 -50 -81 -2 -24 -6 -85 -9 -136 -8 -158 -35 -219 -119
-276 -58 -40 -135 -65 -217 -72 -30 -2 -58 -4 -61 -4 -4 -1 -6 -74 -6 -163 -1
-122 3 -170 14 -191 16 -32 66 -57 114 -57 20 0 29 -4 26 -12 -6 -20 -457 -22
-457 -2 0 12 17 16 65 14 12 -1 62 30 75 45 15 18 28 365 13 365 -90 3 -210
31 -258 60 -101 62 -131 125 -140 290 -10 167 -13 184 -36 202 -11 10 -25 15
-30 12 -5 -3 -9 4 -9 16 0 19 4 20 40 15 22 -3 55 -12 73 -20z"/>
</g>
</svg>
